custom-analysis
version=1
nRows=7
nColumns=98
inDegrees=no

This file contains tibia displacement and acting force.

Units are S.I. units (seconds, meters, Newtons, ...)
Angles are in degrees.

endheader
time	APT	SIT	knee_angle	aACL_R_force	pACL_R_force	aPCL_R_force	pPCL_R_force	aMCL_R_force	mMCL_R_force	pMCL_R_force	aLCL_R_force	mLCL_R_force	pLCL_R_force	aPCL_L_force	pPCL_L_force	aMCL_L_force	aLCL_L_force	aACL_R_length	pACL_R_length	aPCL_R_length	pPCL_R_length	aMCL_R_length	mMCL_R_length	pMCL_R_length	aLCL_R_length	mLCL_R_length	pLCL_R_length	aPCL_L_length	pPCL_L_length	aMCL_L_length	aLCL_L_length	aACL_R_strain	pACL_R_strain	aPCL_R_strain	pPCL_R_strain	aMCL_R_strain	mMCL_R_strain	pMCL_R_strain	aLCL_R_strain	mLCL_R_strain	pLCL_R_strain	aPCL_L_strain	pPCL_L_strain	aMCL_L_strain	aLCL_L_strain	femur_lat_meniscii_r.femur_lat_r.force.X	femur_lat_meniscii_r.femur_lat_r.force.Y	femur_lat_meniscii_r.femur_lat_r.force.Z	femur_lat_meniscii_r.femur_lat_r.torque.X	femur_lat_meniscii_r.femur_lat_r.torque.Y	femur_lat_meniscii_r.femur_lat_r.torque.Z	femur_lat_meniscii_r.meniscus_lat_r.force.X	femur_lat_meniscii_r.meniscus_lat_r.force.Y	femur_lat_meniscii_r.meniscus_lat_r.force.Z	femur_lat_meniscii_r.meniscus_lat_r.torque.X	femur_lat_meniscii_r.meniscus_lat_r.torque.Y	femur_lat_meniscii_r.meniscus_lat_r.torque.Z	femur_med_meniscii_r.femur_med_r.force.X	femur_med_meniscii_r.femur_med_r.force.Y	femur_med_meniscii_r.femur_med_r.force.Z	femur_med_meniscii_r.femur_med_r.torque.X	femur_med_meniscii_r.femur_med_r.torque.Y	femur_med_meniscii_r.femur_med_r.torque.Z	femur_med_meniscii_r.meniscus_med_r.force.X	femur_med_meniscii_r.meniscus_med_r.force.Y	femur_med_meniscii_r.meniscus_med_r.force.Z	femur_med_meniscii_r.meniscus_med_r.torque.X	femur_med_meniscii_r.meniscus_med_r.torque.Y	femur_med_meniscii_r.meniscus_med_r.torque.Z	femur_med_tibia_r.tibia_upper_r.force.X	femur_med_tibia_r.tibia_upper_r.force.Y	femur_med_tibia_r.tibia_upper_r.force.Z	femur_med_tibia_r.tibia_upper_r.torque.X	femur_med_tibia_r.tibia_upper_r.torque.Y	femur_med_tibia_r.tibia_upper_r.torque.Z	femur_med_tibia_r.femur_med_r.force.X	femur_med_tibia_r.femur_med_r.force.Y	femur_med_tibia_r.femur_med_r.force.Z	femur_med_tibia_r.femur_med_r.torque.X	femur_med_tibia_r.femur_med_r.torque.Y	femur_med_tibia_r.femur_med_r.torque.Z	femur_lat_tibia_r.tibia_upper_r.force.X	femur_lat_tibia_r.tibia_upper_r.force.Y	femur_lat_tibia_r.tibia_upper_r.force.Z	femur_lat_tibia_r.tibia_upper_r.torque.X	femur_lat_tibia_r.tibia_upper_r.torque.Y	femur_lat_tibia_r.tibia_upper_r.torque.Z	femur_lat_tibia_r.femur_lat_r.force.X	femur_lat_tibia_r.femur_lat_r.force.Y	femur_lat_tibia_r.femur_lat_r.force.Z	femur_lat_tibia_r.femur_lat_r.torque.X	femur_lat_tibia_r.femur_lat_r.torque.Y	femur_lat_tibia_r.femur_lat_r.torque.Z	femur_lat_meniscii_force_r	femur_med_meniscii_force_r	femur_lat_tibia_force_r	femur_med_tibia_force_r
      0.15582941	      0.01199804	      0.01571684	     52.24299066	    -12.31383091	      0.00000000	    447.29020021	    327.63994821	      0.00000000	      0.00000000	      0.00000000	      0.00000000	      0.00000000	      0.00000000	      0.00000000	      0.00000000	      0.00000001	      0.00000000	      0.03154145	      0.02420260	      0.03418321	      0.03209827	      0.05923301	      0.05941325	      0.05682377	      0.05209942	      0.04761333	      0.04282397	      0.01525851	      0.01651186	      0.06550154	      0.04489616	      0.01728573	     -0.03416380	      0.09930475	      0.07395889	     -0.01322725	     -0.00635944	     -0.03242453	     -0.06927429	     -0.15457180	     -0.18185402	      0.00000079	     -0.32847694	      0.00000060	     -0.00000086	     21.07653050	     64.51938508	     16.08375973	     -8.13310312	      0.56349195	      8.05981378	    -21.07653050	    -64.51938508	    -16.08375973	      2.05830780	     -0.90679508	      1.27788573	      1.15350295	      2.59936212	      1.41443395	     -0.51698802	     -0.02894416	      0.47291719	     -1.15350295	     -2.59936212	     -1.41443395	     -0.02278855	      0.00001672	      0.02044395	   -581.06189332	   -667.79132497	    241.49835553	    -15.73080504	     13.33447856	     -0.95156461	    581.06189332	    667.79132497	   -241.49835553	    109.89747315	     -9.79945945	    237.29817420	   -109.08576879	   -166.88248120	    -59.11445689	      5.77277178	     -4.11345725	      0.96652946	    109.08576879	    166.88248120	     59.11445689	    -28.22693202	      2.79461308	     44.19198944	     69.75427238	      3.17614167	    207.95188506	    917.55088867
      0.15609399	      0.01201965	      0.01576941	     52.38686125	    -12.31428459	      0.00000000	    450.53081535	    328.85816717	      0.00000000	      0.00000000	      0.00000000	      0.00000000	      0.00000000	      0.00000000	      0.00000000	      0.00000000	      0.00000001	      0.00000000	      0.03153163	      0.02419305	      0.03420221	      0.03210830	      0.05924270	      0.05941044	      0.05681255	      0.05209706	      0.04760342	      0.04280945	      0.01525851	      0.01651186	      0.06550154	      0.04489616	      0.01696901	     -0.03454492	      0.09991576	      0.07429447	     -0.01306584	     -0.00640634	     -0.03261570	     -0.06931642	     -0.15474774	     -0.18213133	      0.00000079	     -0.32847694	      0.00000060	     -0.00000086	     21.50539751	     64.03754627	     15.63718778	     -7.93181356	      0.57362090	      8.23847485	    -21.50539751	    -64.03754627	    -15.63718778	      2.02700397	     -0.90987716	      1.25928818	      1.19391360	      2.60200394	      1.44747729	     -0.53041243	     -0.02988007	      0.48927560	     -1.19391360	     -2.60200394	     -1.44747729	     -0.02214838	      0.00018532	      0.01986931	   -586.50510063	   -668.54142826	    242.22637120	    -15.75536787	     13.45230626	     -0.99375184	    586.50510063	    668.54142826	   -242.22637120	    110.20612611	     -9.89554835	    239.50490647	   -108.33473801	   -165.24600521	    -58.55227490	      5.70975478	     -4.08452749	      0.97042185	    108.33473801	    165.24600521	     58.55227490	    -27.95376714	      2.77548556	     43.88032399	     69.33838112	      3.20796582	    206.08499847	    921.74263722
      0.15646620	      0.01205015	      0.01584345	     52.58943872	    -12.32237953	      0.00000000	    455.13063665	    330.71725717	      0.00000000	      0.00000000	      0.00000000	      0.00000000	      0.00000000	      0.00000000	      0.00000000	      0.00000000	      0.00000001	      0.00000000	      0.03151790	      0.02417971	      0.03422882	      0.03212229	      0.05925639	      0.05940654	      0.05679684	      0.05209368	      0.04758946	      0.04278908	      0.01525851	      0.01651186	      0.06550154	      0.04489616	      0.01652616	     -0.03507716	      0.10077156	      0.07476245	     -0.01283780	     -0.00647154	     -0.03288318	     -0.06937674	     -0.15499563	     -0.18252056	      0.00000079	     -0.32847694	      0.00000060	     -0.00000086	     21.98154286	     63.36624536	     15.25991958	     -7.75305809	      0.58628358	      8.43747721	    -21.98154286	    -63.36624536	    -15.25991958	      1.99083196	     -0.91710553	      1.23659514	      1.25821732	      2.60279757	      1.47769654	     -0.54254850	     -0.03144975	      0.51541063	     -1.25821732	     -2.60279757	     -1.47769654	     -0.02174389	      0.00096803	      0.01875871	   -594.71789115	   -670.44311477	    243.08250860	    -15.79286735	     13.61871628	     -1.04450961	    594.71789115	    670.44311477	   -243.08250860	    110.58035798	    -10.03535217	    242.83178861	   -107.40779035	   -162.95506104	    -57.90650003	      5.62657845	     -4.05115443	      0.97012319	    107.40779035	    162.95506104	     57.90650003	    -27.63070337	      2.75296392	     43.49744348	     68.78469614	      3.24672960	    203.57786739	    928.58626210
      0.15671200	      0.01207034	      0.01589237	     52.72332512	    -12.30048237	      0.00000000	    458.19165349	    332.01925090	      0.00000000	      0.00000000	      0.00000000	      0.00000000	      0.00000000	      0.00000000	      0.00000000	      0.00000000	      0.00000001	      0.00000000	      0.03150889	      0.02417098	      0.03424635	      0.03213147	      0.05926549	      0.05940403	      0.05678655	      0.05209144	      0.04758026	      0.04277568	      0.01525851	      0.01651186	      0.06550154	      0.04489616	      0.01623564	     -0.03542582	      0.10133521	      0.07506983	     -0.01268617	     -0.00651366	     -0.03305841	     -0.06941681	     -0.15515912	     -0.18277651	      0.00000079	     -0.32847694	      0.00000060	     -0.00000086	     21.78693209	     63.13834801	     15.33086769	     -7.77706126	      0.58091826	      8.35516188	    -21.78693209	    -63.13834801	    -15.33086769	      1.98615484	     -0.91334324	      1.24343697	      1.29452140	      2.60178105	      1.50070525	     -0.55187565	     -0.03229269	      0.53008850	     -1.29452140	     -2.60178105	     -1.50070525	     -0.02134404	      0.00124199	      0.01820854	   -600.69290747	   -671.66920183	    242.77378928	    -15.78794610	     13.71440889	     -1.09314973	    600.69290747	    671.66920183	   -242.77378928	    110.46132877	    -10.13106577	    245.25645451	   -106.69240326	   -161.69899722	    -57.43120282	      5.57701437	     -4.02515109	      0.97979957	    106.69240326	    161.69899722	     57.43120282	    -27.40340620	      2.73528063	     43.19968534	     68.52851161	      3.27065231	    202.05983686	    933.22590970
      0.15707232	      0.01210003	      0.01596408	     52.91975519	    -12.20992312	      0.00000000	    462.68999418	    333.96543073	      0.00000000	      0.00000000	      0.00000000	      0.00000000	      0.00000000	      0.00000000	      0.00000000	      0.00000000	      0.00000001	      0.00000000	      0.03149583	      0.02415832	      0.03427200	      0.03214489	      0.05927896	      0.05940045	      0.05677162	      0.05208817	      0.04756681	      0.04275616	      0.01525851	      0.01651186	      0.06550154	      0.04489616	      0.01581417	     -0.03593086	      0.10216014	      0.07551885	     -0.01246169	     -0.00657338	     -0.03331263	     -0.06947519	     -0.15539781	     -0.18314944	      0.00000079	     -0.32847694	      0.00000060	     -0.00000086	     21.65750800	     62.87912631	     15.35550059	     -7.78218478	      0.57677752	      8.29907089	    -21.65750800	    -62.87912631	    -15.35550059	      1.97993056	     -0.91032134	      1.25029617	      1.35474423	      2.58747603	      1.52803453	     -0.56320351	     -0.03371661	      0.55460959	     -1.35474423	     -2.58747603	     -1.52803453	     -0.02066411	      0.00193931	      0.01685284	   -608.15068896	   -673.59325203	    243.76192314	    -15.82902938	     13.87579528	     -1.11930317	    608.15068896	    673.59325203	   -243.76192314	    110.89029723	    -10.26244988	    248.26824194	   -106.54924561	   -158.62940404	    -56.17038842	      5.45709836	     -3.99254625	      0.92919938	    106.54924561	    158.62940404	     56.17038842	    -26.80782059	      2.72417516	     43.15282260	     68.25411033	      3.29624842	    199.17615847	    939.67813896
      0.15734128	      0.01212224	      0.01601759	     53.06649860	    -12.16989460	      0.00000000	    466.07214065	    335.48911189	      0.00000000	      0.00000000	      0.00000000	      0.00000000	      0.00000000	      0.00000000	      0.00000000	      0.00000000	      0.00000001	      0.00000000	      0.03148618	      0.02414899	      0.03429113	      0.03215489	      0.05928914	      0.05939790	      0.05676061	      0.05208576	      0.04755684	      0.04274170	      0.01525851	      0.01651186	      0.06550154	      0.04489616	      0.01550294	     -0.03630317	      0.10277550	      0.07585347	     -0.01229214	     -0.00661609	     -0.03350000	     -0.06951822	     -0.15557493	     -0.18342573	      0.00000079	     -0.32847694	      0.00000060	     -0.00000086	     21.53163815	     62.63600585	     15.41013914	     -7.80095439	      0.57280403	      8.24504869	    -21.53163815	    -62.63600585	    -15.41013914	      1.97618174	     -0.90783569	      1.25531601	      1.39100083	      2.58416661	      1.55367136	     -0.57366678	     -0.03454116	      0.56924244	     -1.39100083	     -2.58416661	     -1.55367136	     -0.02015480	      0.00213402	      0.01630724	   -613.59722138	   -674.25985681	    243.48380334	    -15.81945180	     13.96744004	     -1.15354244	    613.59722138	    674.25985681	   -243.48380334	    110.77790107	    -10.35093312	    250.47076695	   -105.60689393	   -156.03115533	    -55.35111687	      5.36464949	     -3.95202151	      0.90945981	    105.60689393	    156.03115533	     55.35111687	    -26.40767080	      2.69892953	     42.77185407	     68.00259597	      3.32064678	    196.37281792	    943.61658902
      0.15772169	      0.01215367	      0.01609326	     53.27421677	    -12.14741354	      0.00000000	    470.83640869	    337.60121592	      0.00000000	      0.00000000	      0.00000000	      0.00000000	      0.00000000	      0.00000000	      0.00000000	      0.00000000	      0.00000001	      0.00000000	      0.03147265	      0.02413594	      0.03431819	      0.03216903	      0.05930369	      0.05939444	      0.05674524	      0.05208238	      0.04754279	      0.04272139	      0.01525851	      0.01651186	      0.06550154	      0.04489616	      0.01506652	     -0.03682391	      0.10364557	      0.07632634	     -0.01204972	     -0.00667400	     -0.03376176	     -0.06957867	     -0.15582431	     -0.18381380	      0.00000079	     -0.32847694	      0.00000060	     -0.00000086	     21.26079648	     62.56994911	     15.52336452	     -7.84737368	      0.56573441	      8.12828474	    -21.26079648	    -62.56994911	    -15.52336452	      1.97739187	     -0.90341916	      1.27234526	      1.44940108	      2.57220257	      1.57884772	     -0.58406944	     -0.03598535	      0.59295931	     -1.44940108	     -2.57220257	     -1.57884772	     -0.01957770	      0.00288576	      0.01512065	   -620.70553041	   -674.46337111	    243.11718302	    -15.79816722	     14.09124097	     -1.20246403	    620.70553041	    674.46337111	   -243.11718302	    110.62036745	    -10.46871447	    253.34394070	   -103.88301533	   -152.05868092	    -54.41309753	      5.23531879	     -3.89083798	      0.88495720	    103.88301533	    152.05868092	     54.41309753	    -25.92851630	      2.65588233	     42.07266856	     67.88221302	      3.34809642	    192.02684318	    948.30488723
